<?xml version="1.0" encoding="iso-8859-1"?>
<!-- Generator: Adobe Illustrator 24.1.2, SVG Export Plug-In . SVG Version: 6.00 Build 0)  -->
<svg version="1.1" baseProfile="basic" id="&#x421;&#x43B;&#x43E;&#x439;_1"
	 xmlns="http://www.w3.org/2000/svg" xmlns:xlink="http://www.w3.org/1999/xlink" x="0px" y="0px" viewBox="0 0 48 48"
	 xml:space="preserve">
<path marker-end="none" marker-start="none" style="fill-rule:evenodd;clip-rule:evenodd;" d="M21.999,47.995
	c-4.959,0-18-0.221-18-0.499c0-0.279,13.041-0.499,18-0.499V47.995z"/>
<path marker-end="none" marker-start="none" style="fill-rule:evenodd;clip-rule:evenodd;" d="M21.999,47.995
	c6.336,0,23-0.221,23-0.499c0-0.279-16.664-0.499-23-0.499V47.995z"/>
<path marker-end="none" marker-start="none" style="fill-rule:evenodd;clip-rule:evenodd;" d="M20.503,47.586
	c-0.417-0.233-0.769-0.439-1.128-0.692l-3.176-2.229l-15.2-7.62l1.132-2.259L0.999,33.99l2.999-4.409l-1.397-1.059l1.835-2.469
	l-2.015-2.016l10.225-10.225l4.921-9.813l3.257,1.635l5.056-5.056l19.907,19.905c1.193,1.193,1.647,2.619,0.711,3.555L26.09,44.445
	l-0.003,0.004l-3.049,3.048C22.358,48.177,21.421,48.125,20.503,47.586z M22.327,46.786c0.388-0.388,0.537-0.861,0.493-1.367
	c-0.948-2.559-12.041-9.952-18.525-14.487l-1.907,2.804l17.565,12.336c0.319,0.223,0.633,0.409,1.048,0.644
	C21.718,47.134,22.099,47.014,22.327,46.786z M22.977,43.293L45.078,21.19L25.881,1.993L3.838,24.037l18.487,18.487
	C22.554,42.754,22.777,43.014,22.977,43.293z M23.415,40.515c-0.195-0.196-0.195-0.512,0-0.708l4.232-4.232
	c0.196-0.195,0.512-0.195,0.708,0c0.195,0.196,0.195,0.512,0,0.708l-4.232,4.232C23.927,40.71,23.611,40.71,23.415,40.515z
	 M21.283,38.405c-0.195-0.196-0.195-0.512,0-0.708l4.233-4.232c0.196-0.195,0.512-0.195,0.708,0c0.195,0.196,0.195,0.512,0,0.708
	l-4.233,4.232C21.795,38.599,21.479,38.599,21.283,38.405z M15.117,36.734l-3.54-3.54l-6.837-5.852l-0.731,0.985L15.117,36.734z
	 M19.173,36.273c-0.195-0.196-0.195-0.512,0-0.708l4.232-4.232c0.196-0.195,0.512-0.195,0.708,0c0.195,0.196,0.195,0.512,0,0.708
	l-4.232,4.232C19.685,36.467,19.369,36.467,19.173,36.273z M17.042,34.161c-0.195-0.196-0.195-0.512,0-0.708l4.232-4.232
	c0.196-0.195,0.512-0.195,0.708,0c0.195,0.196,0.195,0.512,0,0.708l-4.232,4.232C17.554,34.355,17.238,34.355,17.042,34.161z
	 M30.486,33.445c-0.195-0.196-0.195-0.512,0-0.708l4.233-4.232c0.196-0.195,0.512-0.195,0.708,0c0.195,0.196,0.195,0.512,0,0.708
	l-4.233,4.232C30.998,33.639,30.682,33.639,30.486,33.445z M14.93,32.03c-0.195-0.196-0.195-0.512,0-0.708l4.232-4.232
	c0.196-0.195,0.512-0.195,0.708,0c0.195,0.196,0.195,0.512,0,0.708l-4.232,4.232C15.442,32.225,15.126,32.225,14.93,32.03z
	 M28.355,31.334c-0.195-0.196-0.195-0.512,0-0.708l4.232-4.233c0.196-0.195,0.512-0.195,0.708,0c0.195,0.196,0.195,0.512,0,0.708
	l-4.232,4.233C28.867,31.529,28.551,31.529,28.355,31.334z M12.799,29.918c-0.195-0.196-0.195-0.512,0-0.708l4.232-4.232
	c0.196-0.195,0.512-0.195,0.708,0c0.195,0.196,0.195,0.512,0,0.708l-4.232,4.232C13.311,30.113,12.995,30.113,12.799,29.918z
	 M26.243,29.202c-0.195-0.196-0.195-0.512,0-0.708l4.233-4.232c0.196-0.195,0.512-0.195,0.708,0c0.195,0.196,0.195,0.512,0,0.708
	l-4.233,4.232C26.755,29.397,26.439,29.397,26.243,29.202z M10.277,27.491c-0.293-0.292-0.293-0.768,0-1.06l11.075-11.075
	c0.292-0.293,0.768-0.293,1.06,0c0.293,0.292,0.293,0.768,0,1.06L11.337,27.491C11.045,27.785,10.569,27.785,10.277,27.491z
	 M24.113,27.09c-0.195-0.196-0.195-0.512,0-0.708l4.233-4.232c0.196-0.195,0.512-0.195,0.708,0c0.195,0.196,0.195,0.512,0,0.708
	l-4.233,4.232C24.625,27.285,24.309,27.285,24.113,27.09z M37.558,26.373c-0.195-0.196-0.195-0.512,0-0.708l4.232-4.232
	c0.196-0.195,0.512-0.195,0.708,0c0.195,0.196,0.195,0.512,0,0.708l-4.232,4.232C38.07,26.567,37.754,26.567,37.558,26.373z
	 M22.001,24.959c-0.195-0.196-0.195-0.512,0-0.708l4.233-4.232c0.196-0.195,0.512-0.195,0.708,0c0.195,0.196,0.195,0.512,0,0.708
	l-4.233,4.232C22.513,25.154,22.197,25.154,22.001,24.959z M7.497,24.617c-0.391-0.391-0.391-1.024,0-1.415l10.781-10.781
	c0.391-0.391,1.024-0.391,1.415,0c0.391,0.391,0.391,1.024,0,1.415L8.911,24.617C8.521,25.007,7.887,25.007,7.497,24.617z
	 M35.426,24.262c-0.195-0.196-0.195-0.512,0-0.708l4.232-4.232c0.196-0.195,0.512-0.195,0.708,0c0.195,0.196,0.195,0.512,0,0.708
	l-4.232,4.232C35.938,24.457,35.622,24.457,35.426,24.262z M19.87,22.847c-0.195-0.196-0.195-0.512,0-0.708l4.233-4.232
	c0.196-0.195,0.512-0.195,0.708,0c0.195,0.196,0.195,0.512,0,0.708l-4.233,4.232C20.382,23.042,20.066,23.042,19.87,22.847z
	 M33.315,22.13c-0.195-0.196-0.195-0.512,0-0.708l4.232-4.232c0.196-0.195,0.512-0.195,0.708,0c0.195,0.196,0.195,0.512,0,0.708
	l-4.232,4.232C33.827,22.325,33.511,22.325,33.315,22.13z M31.185,20.019c-0.195-0.196-0.195-0.512,0-0.708l4.232-4.233
	c0.196-0.195,0.512-0.195,0.708,0c0.195,0.196,0.195,0.512,0,0.708l-4.232,4.233C31.697,20.214,31.381,20.214,31.185,20.019z
	 M29.417,18.25l-8.485-8.485l4.949-4.948l8.485,8.485L29.417,18.25z"/>
</svg>